<?xml version="1.0" encoding="UTF-8" standalone="no"?>
<svg
   id="svg70"
   xml:space="preserve"
   viewBox="0 0 52.970803 81.767416"
   version="1.1"
   height="81.767418"
   width="52.970802"
   sodipodi:docname="ipd_logo_small.svg"
   inkscape:version="1.2.2 (b0a84865, 2022-12-01)"
   xmlns:inkscape="http://www.inkscape.org/namespaces/inkscape"
   xmlns:sodipodi="http://sodipodi.sourceforge.net/DTD/sodipodi-0.dtd"
   xmlns="http://www.w3.org/2000/svg"
   xmlns:svg="http://www.w3.org/2000/svg"
   xmlns:rdf="http://www.w3.org/1999/02/22-rdf-syntax-ns#"
   xmlns:cc="http://creativecommons.org/ns#"
   xmlns:dc="http://purl.org/dc/elements/1.1/"><sodipodi:namedview
     id="namedview38"
     pagecolor="#ffffff"
     bordercolor="#000000"
     borderopacity="0.25"
     inkscape:showpageshadow="2"
     inkscape:pageopacity="0.0"
     inkscape:pagecheckerboard="0"
     inkscape:deskcolor="#d1d1d1"
     showgrid="false"
     inkscape:zoom="1.9444673"
     inkscape:cx="201.85477"
     inkscape:cy="60.685001"
     inkscape:window-width="1512"
     inkscape:window-height="916"
     inkscape:window-x="0"
     inkscape:window-y="38"
     inkscape:window-maximized="1"
     inkscape:current-layer="svg70" /><defs
     id="defs74"><clipPath
       clipPathUnits="userSpaceOnUse"
       id="clipPath407"><rect
         style="fill:#78aedc;stroke-width:1.01225"
         id="rect409"
         width="39.729095"
         height="61.329372"
         x="2.7277382e-08"
         y="-91.029778"
         ry="0"
         transform="scale(1,-1)" /></clipPath></defs><metadata
     id="metadata2"><rdf:RDF><cc:Work
         rdf:about=""><dc:format>image/svg+xml</dc:format><dc:type
           rdf:resource="http://purl.org/dc/dcmitype/StillImage" /></cc:Work></rdf:RDF></metadata><g
     id="g68"
     transform="matrix(1.3333,0,0,-1.3333,2.5713983,121.88125)"
     clip-path="url(#clipPath407)"><g
       id="g66"
       transform="scale(0.1)"><path
         id="path4"
         fill="#4d97b7"
         d="m 305.01,729.05 57.383,27.219 c -4.661,6.941 -11.192,12.636 -19.133,16.207 L 64.31,897.836 C 34.126,911.398 -0.002,889.32 -0.002,856.23 v -93.621 c 0,-17.957 10.535,-34.242 26.918,-41.605 l 134.1,-60.27 143.98,68.313" /><path
         id="path6"
         fill="#b11186"
         d="M 161.02,660.73 26.06,596.707 C 10.142,589.152 -0.002,573.109 -0.002,555.492 v -199.43 c 0,-32.589 33.195,-54.668 63.25,-42.066 l 91.395,38.316 c 16.949,7.106 27.98,23.692 27.976,42.071 l -0.004,82.957 161.5,76.613 c 7.7,3.656 14.012,9.324 18.516,16.172 l -201.61,90.605" /><path
         id="path8"
         fill="#302567"
         d="m 362.39,756.27 -57.383,-27.219 -143.98,-68.313 201.61,-90.605 c 4.805,7.305 7.547,15.949 7.547,25.043 v 135.69 c 0,9.254 -2.836,18.032 -7.785,25.403" /><g
         id="g34"
         fill="#4d97b7"><path
           id="path10"
           d="m 555.93,908.45 h 33.121 V 785.89 H 555.93 v 122.56" /><path
           id="path12"
           d="m 627.2,908.45 h 26.172 l 48.195,-59.957 9.774,-13.906 h 1.488 v 73.863 h 28.817 V 785.89 h -26 l -46.872,58.636 -11.101,15.239 h -1.652 V 785.89 H 627.2 v 122.56" /><path
           id="path14"
           d="m 824.94,783.9 c -3.316,0 -6.933,0.118 -10.851,0.325 -3.918,0.222 -7.895,0.589 -11.922,1.086 -4.031,0.496 -8.09,1.042 -12.172,1.66 -4.09,0.597 -7.953,1.343 -11.598,2.23 v 26.496 c 8.504,-1.879 16.372,-3.34 23.606,-4.386 7.226,-1.043 13.883,-1.567 19.953,-1.567 7.176,0 12.316,0.824 15.406,2.481 3.086,1.66 4.633,4.246 4.633,7.785 0,4.086 -1.734,7.062 -5.215,8.945 -3.472,1.867 -8.586,3.367 -15.32,4.465 -6.953,1.109 -13.059,2.652 -18.301,4.637 -5.242,1.984 -9.605,4.558 -13.086,7.703 -3.472,3.148 -6.07,6.961 -7.781,11.429 -1.715,4.477 -2.566,9.793 -2.566,15.985 0,11.699 4.445,20.816 13.332,27.332 8.886,6.504 21.281,9.769 37.179,9.769 2.762,0 5.524,-0.078 8.285,-0.25 2.758,-0.168 5.68,-0.445 8.778,-0.836 3.086,-0.378 6.457,-0.875 10.101,-1.488 3.645,-0.601 7.782,-1.344 12.426,-2.234 v -26.324 c -5.637,1.644 -11.734,2.976 -18.305,3.968 -6.566,0.992 -12.453,1.489 -17.64,1.489 -13.141,0 -19.707,-3.539 -19.707,-10.606 0,-4.086 1.734,-7.219 5.215,-9.441 3.48,-2.207 9.086,-4.02 16.816,-5.457 6.621,-1.215 12.445,-2.797 17.473,-4.727 5.019,-1.933 9.215,-4.324 12.582,-7.199 3.371,-2.871 5.91,-6.293 7.621,-10.277 1.711,-3.969 2.566,-8.657 2.566,-14.079 0,-12.914 -4.304,-22.628 -12.918,-29.144 -8.609,-6.52 -21.472,-9.77 -38.59,-9.77" /><path
           id="path16"
           d="m 934.17,882.78 h -34.453 v 25.664 h 102.02 V 882.78 H 967.13 v -96.898 h -32.961 v 96.898" /><path
           id="path18"
           d="m 1035.7,908.45 h 33.12 V 785.89 h -33.12 v 122.56" /><path
           id="path20"
           d="m 1135.8,882.78 h -34.45 v 25.664 h 102.02 V 882.78 h -34.61 v -96.898 h -32.96 v 96.898" /><path
           id="path22"
           d="m 1290.9,784.23 c -10.83,0 -19.91,1.086 -27.24,3.242 -7.36,2.152 -13.29,5.402 -17.82,9.765 -4.53,4.364 -7.75,9.821 -9.69,16.403 -1.93,6.57 -2.9,14.261 -2.9,23.101 v 72.051 h 32.96 v -73.043 c 0,-8.277 1.96,-14.547 5.88,-18.805 3.92,-4.242 10.19,-6.371 18.81,-6.371 8.72,0 15.01,2.129 18.88,6.371 3.85,4.258 5.8,10.528 5.8,18.805 v 73.043 h 32.95 v -72.051 c 0,-8.84 -0.97,-16.531 -2.9,-23.101 -1.93,-6.582 -5.16,-12.039 -9.69,-16.403 -4.52,-4.363 -10.46,-7.613 -17.8,-9.765 -7.34,-2.156 -16.43,-3.242 -27.24,-3.242" /><path
           id="path24"
           d="m 1413,882.78 h -34.45 v 25.664 h 102.02 V 882.78 h -34.61 V 785.882 H 1413 v 96.898" /><path
           id="path26"
           d="m 1514.5,908.45 h 92.59 v -25.508 h -59.46 v -22.851 h 53.66 v -25.504 h -53.66 v -23.195 h 61.1 v -25.504 h -94.23 v 122.56" /><path
           id="path28"
           d="m 1702.2,908.45 h 92.25 v -25.508 h -59.12 v -26.82 h 52.99 v -25.508 h -52.99 v -44.726 h -33.13 v 122.56" /><path
           id="path30"
           d="m 1885.2,810.4 c 5.31,0 9.69,0.59 13.17,1.739 3.49,1.16 6.29,3.121 8.45,5.89 2.15,2.754 3.67,6.477 4.56,11.176 0.87,4.688 1.31,10.617 1.31,17.801 0,6.961 -0.47,12.812 -1.39,17.551 -0.94,4.754 -2.5,8.566 -4.65,11.441 -2.14,2.859 -4.99,4.91 -8.53,6.125 -3.53,1.215 -7.84,1.813 -12.92,1.813 -5.08,0 -9.35,-0.598 -12.83,-1.813 -3.48,-1.215 -6.3,-3.266 -8.45,-6.125 -2.16,-2.875 -3.7,-6.66 -4.64,-11.348 -0.94,-4.703 -1.41,-10.578 -1.41,-17.644 0,-7.066 0.47,-12.941 1.41,-17.645 0.94,-4.687 2.46,-8.433 4.56,-11.254 2.1,-2.824 4.88,-4.808 8.36,-5.968 3.48,-1.149 7.82,-1.739 13,-1.739 z m 0,-26.171 c -19.98,0 -35.16,5.304 -45.55,15.906 -10.37,10.605 -15.56,26.222 -15.56,46.871 0,20.867 5.16,36.605 15.49,47.211 10.33,10.59 25.53,15.89 45.62,15.89 20.1,0 35.34,-5.328 45.71,-15.984 10.38,-10.656 15.58,-26.351 15.58,-47.117 0,-20.649 -5.2,-36.266 -15.58,-46.871 -10.37,-10.602 -25.61,-15.906 -45.71,-15.906" /><path
           id="path32"
           d="m 2028.1,849.98 c 4.86,0 8.95,0.317 12.27,0.915 3.31,0.613 5.95,1.582 7.95,2.898 1.99,1.332 3.4,3.098 4.22,5.305 0.82,2.207 1.24,4.961 1.24,8.277 0,3.32 -0.39,6.074 -1.16,8.281 -0.77,2.207 -2.12,3.985 -4.05,5.301 -1.93,1.332 -4.51,2.262 -7.71,2.82 -3.2,0.551 -7.18,0.825 -11.92,0.825 -1.88,0 -4.09,-0.079 -6.62,-0.25 -2.55,-0.168 -4.65,-0.364 -6.29,-0.575 v -32.789 c 1.21,-0.34 2.78,-0.59 4.71,-0.758 1.93,-0.156 4.39,-0.25 7.36,-0.25 z m 6.64,-24.835 c -1.88,-0.223 -3.74,-0.329 -5.55,-0.329 h -5.72 -1.41 c -0.72,0 -1.49,0.028 -2.31,0.079 -0.83,0.05 -1.61,0.105 -2.33,0.168 -0.72,0.054 -1.19,0.082 -1.39,0.082 v -39.258 h -33.14 v 121.74 c 13.59,1.66 26.5,2.48 38.76,2.48 11.48,0 21.37,-0.796 29.65,-2.402 8.28,-1.594 15.09,-4.14 20.45,-7.613 5.35,-3.473 9.3,-7.902 11.84,-13.254 2.54,-5.356 3.82,-11.781 3.82,-19.289 0,-17.567 -7.96,-29.711 -23.86,-36.438 l 29.66,-45.222 h -36.95 l -21.52,39.258" /></g><g
         id="g64"
         fill="#302567"><path
           id="path36"
           d="m 672.56,542.75 c 37.027,0 55.332,26.809 55.332,51.922 0,25.113 -18.731,50.656 -55.332,50.656 H 604.454 V 542.748 Z M 555.94,694.71 h 116.62 c 69.375,0 104.28,-50.227 104.28,-99.184 0,-50.226 -34.91,-97.894 -103.86,-97.894 h -68.527 v -104.29 h -48.519 v 301.37" /><path
           id="path38"
           d="m 905.49,615.53 v -41.277 c -24.254,7.234 -62.988,-2.992 -62.988,-32.781 v -148.13 h -46.824 v 148.98 c 0,31.496 17.453,54.051 40.863,66.407 13.617,7.234 37.461,9.363 43.84,9.363 7.238,0 15.324,-0.434 25.109,-2.563" /><path
           id="path40"
           d="m 967.64,541.89 v -74.477 c 0,-20.867 20.855,-32.777 40.433,-32.777 18.31,0 39.59,11.91 39.59,32.777 v 74.477 c 0,20.871 -21.28,30.652 -39.59,30.652 -19.578,0 -40.433,-9.781 -40.433,-30.652 z m -46.824,0 c 0,50.66 43.839,75.769 87.257,76.203 42.56,-0.434 86.41,-25.543 86.41,-76.203 v -76.606 c 0,-51.504 -43.85,-75.769 -86.41,-76.199 -43.418,0.43 -87.257,24.695 -87.257,76.199 v 76.606" /><path
           id="path42"
           d="m 1231.1,390.36 c -5.96,-0.847 -11.91,-1.277 -17.45,-1.277 -43.42,0 -77.89,22.984 -77.89,78.746 v 197.93 h 42.14 l 4.26,-51.922 h 42.13 v -42.574 h -42.13 v -103 c 0,-34.91 23.41,-37.039 48.94,-37.039 V 390.36" /><path
           id="path44"
           d="m 1386,541.47 c 0,20.426 -20,31.07 -40.43,31.07 -20.85,0 -41.29,-10.215 -40.44,-31.918 V 520.614 H 1386 Z m 38.32,-107.27 c -17.03,-30.219 -50.23,-45.117 -79.18,-45.117 -43.41,0 -87.25,25.113 -87.25,75.77 v 77.468 c 0,51.504 43.84,75.77 87.25,75.77 42.14,0 85.98,-24.266 85.98,-75.77 V 481.88 h -125.99 v -15.328 c 0,-20.008 19.15,-31.918 39.16,-31.918 16.18,0 32.78,5.535 40.86,22.137 l 39.17,-22.571" /><path
           id="path46"
           d="M 1518,613.83 V 393.34 h -46.83 v 220.49 z m -24.26,85.133 c 17.44,0 29.78,-12.774 29.78,-29.801 0,-16.598 -12.34,-29.801 -29.78,-29.801 -16.6,0 -29.37,13.203 -29.37,29.801 0,17.027 12.77,29.801 29.37,29.801" /><path
           id="path48"
           d="m 1566.9,600.21 c 21.7,11.062 48.94,17.445 75.33,17.879 50.23,0.418 97.05,-21.719 97.05,-78.332 v -146.42 h -46.39 v 146 c -1.28,24.683 -25.11,34.91 -47.68,34.91 -11.92,0 -23.41,-2.562 -31.5,-7.668 v -173.24 h -46.81 v 206.87" /><path
           id="path50"
           d="m 1984.4,442.72 c 33.61,0 63.41,12.344 63.41,43.84 v 113.22 c 0,31.934 -29.8,45.551 -63.41,45.551 h -59.17 v -202.61 z m 0,251.99 c 58.74,0 112.79,-28.953 112.79,-94.93 V 486.56 c 0,-65.543 -54.05,-93.215 -112.79,-93.215 h -108.12 v 301.37 h 108.12" /><path
           id="path52"
           d="m 2264.3,541.47 c 0,20.426 -20.01,31.07 -40.44,31.07 -20.85,0 -41.29,-10.215 -40.44,-31.918 v -20.008 h 80.88 z m 38.31,-107.27 c -17.03,-30.219 -50.22,-45.117 -79.18,-45.117 -43.4,0 -87.24,25.113 -87.24,75.77 v 77.468 c 0,51.504 43.84,75.77 87.24,75.77 42.15,0 85.99,-24.266 85.99,-75.77 V 481.88 h -126 v -15.328 c 0,-20.008 19.16,-31.918 39.17,-31.918 16.18,0 32.77,5.535 40.86,22.137 l 39.16,-22.571" /><path
           id="path54"
           d="m 2371.1,464 c 11.91,-20.856 34.9,-31.93 53.64,-31.5 15.73,0 28.94,8.082 29.79,24.68 0,16.183 -19.16,20.859 -34.48,24.265 -31.07,5.957 -78.32,19.574 -78.32,69.383 0,48.945 44.69,67.258 82.15,67.258 23.41,0 50.22,-10.227 71.94,-31.5 l -28.1,-30.652 c -12.34,12.343 -31.92,18.73 -48.52,18.73 -16.18,0 -29.8,-6.387 -31.08,-20.008 -1.7,-19.574 21.72,-27.242 40.01,-30.219 35.34,-5.957 72.37,-19.578 72.8,-66.406 0,-45.969 -37.04,-69.371 -77.05,-69.371 -34.9,0 -71.5,17.445 -87.68,52.774 L 2371.1,464" /><path
           id="path56"
           d="M 2585.6,613.83 V 393.34 h -46.84 v 220.49 z m -24.27,85.133 c 17.45,0 29.79,-12.774 29.79,-29.801 0,-16.598 -12.34,-29.801 -29.79,-29.801 -16.6,0 -29.37,13.203 -29.37,29.801 0,17.027 12.77,29.801 29.37,29.801" /><path
           id="path58"
           d="m 2754.2,566.15 c -8.51,5.969 -21.72,8.946 -34.91,8.946 -22.13,0 -43.84,-10.645 -43.84,-34.477 v -75.34 c 1.28,-22.566 21.71,-34.488 43.41,-34.488 13.21,0 26.4,3.406 35.34,9.793 z m -95.34,-191.96 c 12.34,-16.613 34.47,-25.976 55.33,-25.976 22.55,0 41.71,12.773 41.71,48.961 -12.77,-5.539 -26.81,-8.098 -40.43,-8.098 -44.27,0 -86.83,27.242 -86.83,76.617 v 74.922 c 0,53.621 45.1,77.035 92.78,77.469 28.52,0 59.17,-9.363 79.17,-24.266 v -204.74 c 0,-55.75 -42.13,-80.875 -85.98,-80.875 -32.77,0 -66.83,12.77 -83.86,39.164 l 28.11,26.824" /><path
           id="path60"
           d="m 2849.1,600.21 c 21.71,11.062 48.95,17.445 75.34,17.879 50.23,0.418 97.04,-21.719 97.04,-78.332 v -146.42 h -46.38 v 146 c -1.28,24.683 -25.11,34.91 -47.68,34.91 -11.92,0 -23.42,-2.562 -31.5,-7.668 v -173.24 h -46.82 v 206.87" /><path
           id="path62"
           d="m 558.94,67.578 c 0,-18.387 15.524,-32.445 34.711,-32.445 18.227,0 36.25,13.492 36.25,32.445 v 72.328 l 9.496,9.629 H 610.21 l 9.629,-9.629 V 67.578 c 0,-12.875 -10.195,-23.152 -23.188,-23.152 -13.093,0 -24.652,10.027 -24.652,23.152 v 72.328 l 9.695,9.629 h -32.449 l 9.695,-9.629 z m 126,-20.285 v 83.867 l 60.07,-93.582 h 3.894 v 102.33 l 9.629,9.629 h -29.218 l 9.664,-9.629 V 68.697 l -50.407,80.84 h -23.156 l 9.496,-9.629 V 47.295 l -9.496,-9.7149 h 29.152 z m 104.18,102.24 8.93,-8.894 V 46.49 l -8.93,-8.9141 h 30.153 l -8.93,8.9141 v 94.149 l 8.93,8.894 z m 86.922,0 h -31.719 l 9.164,-8.894 31.485,-103.06 h 5.664 l 32.48,103.06 9.161,8.894 h -27.016 l 8.726,-8.68 -23.687,-77.437 -23.02,77.437 z m 145.18,-111.96 v 20.488 l -11.96,-12.141 h -33.947 v 47.074 h 25.187 l 8.96,-8.9297 v 26.188 l -8.96,-8.93 h -25.187 v 39.879 h 33.947 l 11.96,-11.961 v 20.289 h -66.993 l 8.726,-8.894 v -94.149 l -8.726,-8.9141 z m 50.28,8.9141 v 43.309 h 16.92 l 27.12,-52.223 h 18.59 l -8.73,8.9141 -25.02,45.941 c 12.53,3.8281 21.05,15.605 21.05,26.152 0,19.055 -17.69,30.949 -36.21,30.949 h -34.78 l 8.76,-8.894 v -94.149 l -8.76,-8.9141 h 30.02 z m 0,94.715 h 13.72 c 11.89,0 21.42,-10.227 21.42,-22.391 0,-11.609 -9.73,-20.703 -21.42,-20.703 h -13.72 z m 143.88,-72.512 c 0,11.012 -5.16,17.856 -10.42,21.473 l -22.82,16.488 c -8.17,5.899 -12.3,13.492 -12.3,19.192 0,11.793 10,15.875 16.09,15.875 3.23,0 5.5,-1.266 7.2,-1.266 l 9.93,-10.629 10.39,15.574 -22.22,4.133 c -1.53,0.399 -2.46,0.602 -5.3,0.602 -19.52,0 -28.41,-16.696 -28.41,-27.52 0,-8.527 4.29,-18.222 14.42,-25.601 l 22.96,-16.543 c 6.23,-4.3633 7.92,-10.793 7.92,-16.324 0,-9.4453 -5.86,-19.723 -18.58,-19.723 -3.04,0 -5.67,0.5664 -7.77,1.5 l -10.66,12.559 -9.66,-17.457 21.46,-4.2304 c 0,0 3.59,-0.7344 6.63,-0.7344 13.49,0 31.14,11.394 31.14,32.633 m 32.45,80.84 8.97,-8.894 v -94.149 l -8.97,-8.9141 h 30.19 l -8.96,8.9141 v 94.149 l 8.96,8.894 z m 101.55,-103.04 v 94.715 h 21.22 l 11.93,-11.961 v 20.289 h -78.73 v -20.289 l 12.16,11.961 h 21.06 v -94.715 l -8.73,-8.9141 h 29.98 z m 58.97,94.149 28.28,-51.039 v -43.109 l -8.86,-8.9141 h 30.12 l -8.9,8.9141 v 43.109 l 28.82,50.855 9.36,9.078 h -27.75 l 8.76,-8.68 -23.55,-41.992 -22.39,41.992 8.76,8.68 h -31.71 z m 182.73,-32.2 c -4.13,0 -10.53,-1.867 -17.02,-5.613 -10.93,-6.5155 -22.72,-21.125 -22.72,-43.176 0,-11.027 5.19,-23.375 19.85,-23.375 6.93,0 16.86,4.5821 23.52,10.562 10.33,9.4141 16.53,25.703 16.53,39.711 0,13.094 -6.93,21.89 -20.16,21.89 m -26.95,-45.023 c 0,23.352 11.79,35.961 16.69,38.012 1.4,0.613 3.63,1.23 5.23,1.23 7.86,0 12.39,-5.9647 12.39,-18.172 0.37,-20.406 -10.39,-39.062 -16.99,-41.246 -1.26,-0.4844 -3.33,-1.1172 -4.93,-1.1172 -8.73,0 -12.39,9.4961 -12.39,21.293 m 70.93,41.273 -4.23,-4.062 0.46,-1.5977 h 13.06 c -2.03,-14.16 -3.89,-26.488 -6.93,-46.344 -4.29,-29.484 -7.86,-39.945 -10.86,-42.394 -0.96,-0.96487 -2.53,-1.4492 -3.96,-1.4492 -1.87,0 -4.87,1.4492 -7,2.3476 -1.87,0.9844 -3.4,-0.1328 -4.36,-1.082 -1.24,-1.4297 -2.63,-3.6289 -2.63,-5.3946 0,-3.1016 4.13,-4.7148 6.79,-4.7148 3,0 10.53,2.5469 17.29,10.879 5.37,6.6289 12.63,21.938 18.79,57.598 1.1,6.5976 2.33,13.226 5,30.555 l 16.06,1.5977 3.53,4.062 h -18.63 c 4.74,29.168 8.7,38.047 15.43,38.047 4.8,0 8.7,-1.929 12.16,-5.261 1.13,-1.082 2.87,-1.082 4.43,0.199 1.3,1.097 3.13,3.613 3.13,5.828 0.17,3.133 -4.09,6.633 -9.46,6.633 -9.09,0 -18.72,-5.399 -25.39,-13.227 -6.13,-7.465 -10.22,-19.406 -12.42,-32.219 z m 165.98,-67.113 25.56,81.008 24.92,-81.008 h 5.69 l 32.42,103.06 9.13,8.894 h -26.96 l 8.73,-8.68 -23.75,-77.437 -22.92,77.437 8.73,8.68 h -31.72 l 8.93,-8.894 2.3,-7.379 -21.46,-69.844 -22.99,77.437 8.77,8.68 h -31.72 l 9.06,-8.894 31.55,-103.06 z m 119.04,8.7461 8.16,23.719 h 37.01 l 7.77,-23.719 -8.73,-8.7461 h 31.68 l -8.86,9.1289 -34.98,102.83 h -5.73 l -35.45,-102.83 -9.09,-9.1289 h 26.98 z m 26.98,78.36 15.36,-46.313 h -31.31 z m 125.23,-55.989 c 0,11.012 -5.12,17.856 -10.42,21.473 l -22.79,16.488 c -8.16,5.899 -12.36,13.492 -12.36,19.192 0,11.793 10.1,15.875 16.13,15.875 3.26,0 5.52,-1.266 7.26,-1.266 l 9.86,-10.629 10.43,15.574 -22.22,4.133 c -1.54,0.399 -2.44,0.602 -5.33,0.602 -19.53,0 -28.46,-16.696 -28.46,-27.52 0,-8.527 4.4,-18.222 14.46,-25.601 l 22.96,-16.543 c 6.29,-4.3633 7.99,-10.793 7.99,-16.324 0,-9.4453 -5.93,-19.723 -18.65,-19.723 -2.94,0 -5.67,0.5664 -7.77,1.5 l -10.62,12.559 -9.67,-17.457 21.43,-4.2304 c 0,0 3.69,-0.7344 6.63,-0.7344 13.52,0 31.14,11.394 31.14,32.633 m 50.48,25.035 h 47.04 v -47.238 l -8.9,-8.9141 h 30.15 l -8.89,8.9141 v 94.149 l 8.89,8.894 h -30.15 l 8.9,-8.894 v -38.547 h -47.04 v 38.547 l 8.96,8.894 h -29.98 l 8.72,-8.894 v -94.149 l -8.72,-8.9141 h 29.98 l -8.96,8.9141 z m 99.48,55.804 8.86,-8.894 v -94.149 l -8.86,-8.9141 h 30.08 l -8.83,8.9141 v 94.149 l 8.83,8.894 z m 80.25,-102.24 v 83.867 l 58.91,-93.582 h 5.03 v 102.33 l 9.69,9.629 h -29.22 l 9.7,-9.629 v -71.211 l -50.51,80.84 h -23.15 l 9.53,-9.629 v -92.613 l -9.53,-9.7149 h 29.18 z m 166.01,41.144 v -36.031 c -2.69,-2.6485 -7.99,-7.9805 -18.39,-7.9805 -24.85,0 -37.41,25.02 -37.41,49.191 0,24.25 15.76,49.156 37.41,49.156 5.73,0 9.83,-1.367 13.66,-5.363 l 12.33,-12.144 v 19.371 c -6.63,3.398 -13.29,6.429 -25.99,6.429 -30.58,0 -52,-27.316 -52,-57.449 0,-29.602 21.42,-57.555 52,-57.555 17.26,0 24.66,4.1992 30.72,8.1953 v 44.18 l 8.73,8.9414 h -29.98 z m 82.89,-41.945 v 94.715 h 21.26 l 11.96,-11.961 v 20.289 h -78.69 v -20.289 l 12.09,11.961 h 21.02 v -94.715 l -8.66,-8.9141 h 29.95 z m 50.64,47.125 c 0,-28.52 16.16,-58.484 44.84,-58.484 28.79,0 44.91,29.965 44.91,58.484 0,28.399 -16.12,58.418 -44.91,58.418 -28.68,0 -44.84,-30.019 -44.84,-58.418 m 44.84,-49.957 c -22.48,0 -30.25,26.734 -30.25,49.957 0,23.102 7.77,49.887 30.25,49.887 22.56,0 30.35,-26.785 30.35,-49.887 0,-23.223 -7.79,-49.957 -30.35,-49.957 m 86.46,3.6328 v 83.867 l 58.23,-93.582 h 5.77 v 102.33 l 9.66,9.629 h -29.25 l 9.66,-9.629 v -71.211 l -50.44,80.84 h -23.16 l 9.47,-9.629 v -92.613 l -9.47,-9.7149 h 29.22 l -9.69,9.7149" /></g></g></g></svg>
